<svg xmlns="http://www.w3.org/2000/svg" viewBox="-100 -100 200 200" role="img" aria-label="Lazy Language Club mascot">
  <rect x="-100" y="-100" width="200" height="200" rx="40" fill="#D9DAF6"/>
  <g transform="translate(0,6) scale(0.82)">
    <!-- spiky bits -->
    <polygon points="35.4,-35.4 67.2,-47 45.3,-21.1" fill="#161616"/>
    <polygon points="47.6,-15.5 81.2,-11.4 49.97,1.7" fill="#161616"/>
    <polygon points="49.2,8.7 77.1,28 43.3,25" fill="#161616"/>
    <polygon points="41,28.7 56.6,56.6 28.7,41" fill="#161616"/>
    <circle cx="0" cy="0" r="52" fill="#161616"/>
    <!-- antennae -->
    <line x1="-40" y1="-18" x2="-72" y2="-30" stroke="#161616" stroke-width="5" stroke-linecap="round"/>
    <circle cx="-74" cy="-31" r="6" fill="#161616"/>
    <line x1="-44" y1="2" x2="-80" y2="2" stroke="#161616" stroke-width="5" stroke-linecap="round"/>
    <circle cx="-82" cy="2" r="6" fill="#161616"/>
    <!-- headphones -->
    <path d="M-54,-20 C-60,-76 60,-76 54,-20" stroke="#161616" stroke-width="8" fill="none" stroke-linecap="round"/>
    <circle cx="-56" cy="-8" r="14" fill="#C7F0A1" stroke="#161616" stroke-width="4"/>
    <circle cx="56" cy="-8" r="14" fill="#C7F0A1" stroke="#161616" stroke-width="4"/>
    <!-- eye -->
    <circle cx="12" cy="-8" r="26" fill="#fff"/>
    <circle cx="6" cy="0" r="11" fill="#161616"/>
  </g>
</svg>
